<svg width="218" height="218" viewBox="0 0 218 218" fill="none" xmlns="http://www.w3.org/2000/svg">
<path d="M2.37797 131.743C0.82096 124.407 1.02773e-05 116.799 0 109C0 103.866 0.355577 98.8148 1.04227 93.8698L73.1512 93.8692L22.2622 42.9801C28.7603 34.4559 36.4862 26.9185 45.1763 20.6312L94.8585 70.3134V0.910874C99.4875 0.311183 104.208 0 109 0C117.81 1.63353e-05 126.375 1.04723 134.579 3.0203V37.5213C134.579 89.5577 92.3949 131.742 40.3585 131.742L2.37797 131.743Z" fill="#F05431"/>
<path d="M86.8309 180.127C86.8312 128.09 129.015 85.9061 181.052 85.906L215.547 85.9067C217.152 93.3502 218 101.076 218 109C218 114.013 217.66 118.946 217.005 123.779L148.259 123.779L197.341 172.861C191.05 181.549 183.509 189.271 174.982 195.765L126.552 147.335V216.593C120.838 217.518 114.975 218 109 218C101.404 218 93.989 217.223 86.8309 215.744V180.127Z" fill="#F05431"/>
</svg>
